<?xml version="1.0" encoding="UTF-8" standalone="no"?>
<!-- Created with Inkscape (http://www.inkscape.org/) -->
<svg
   xmlns:dc="http://purl.org/dc/elements/1.1/"
   xmlns:cc="http://creativecommons.org/ns#"
   xmlns:rdf="http://www.w3.org/1999/02/22-rdf-syntax-ns#"
   xmlns:svg="http://www.w3.org/2000/svg"
   xmlns="http://www.w3.org/2000/svg"
   xmlns:sodipodi="http://sodipodi.sourceforge.net/DTD/sodipodi-0.dtd"
   xmlns:inkscape="http://www.inkscape.org/namespaces/inkscape"
   width="744.09448819"
   height="1052.3622047"
   id="svg2"
   sodipodi:version="0.32"
   inkscape:version="0.46"
   sodipodi:docname="surealived3.svg"
   inkscape:output_extension="org.inkscape.output.svg.inkscape">
  <defs
     id="defs4">
    <inkscape:perspective
       sodipodi:type="inkscape:persp3d"
       inkscape:vp_x="0 : 526.18109 : 1"
       inkscape:vp_y="0 : 1000 : 0"
       inkscape:vp_z="744.09448 : 526.18109 : 1"
       inkscape:persp3d-origin="372.04724 : 350.78739 : 1"
       id="perspective10" />
  </defs>
  <sodipodi:namedview
     id="base"
     pagecolor="#ffffff"
     bordercolor="#666666"
     borderopacity="1.0"
     gridtolerance="10000"
     guidetolerance="10"
     objecttolerance="10"
     inkscape:pageopacity="0.0"
     inkscape:pageshadow="2"
     inkscape:zoom="0.60815564"
     inkscape:cx="372.04724"
     inkscape:cy="526.18109"
     inkscape:document-units="px"
     inkscape:current-layer="layer1"
     showgrid="false"
     showguides="true"
     inkscape:guide-bbox="true"
     inkscape:window-width="1385"
     inkscape:window-height="848"
     inkscape:window-x="47"
     inkscape:window-y="25" />
  <metadata
     id="metadata7">
    <rdf:RDF>
      <cc:Work
         rdf:about="">
        <dc:format>image/svg+xml</dc:format>
        <dc:type
           rdf:resource="http://purl.org/dc/dcmitype/StillImage" />
      </cc:Work>
    </rdf:RDF>
  </metadata>
  <g
     inkscape:label="Layer 1"
     inkscape:groupmode="layer"
     id="layer1">
    <path
       style="font-size:40px;font-style:normal;font-weight:bold;fill:#000000;fill-opacity:1;stroke:#ffffff;stroke-width:0.60000002;stroke-linecap:butt;stroke-linejoin:miter;stroke-miterlimit:4;stroke-opacity:1;font-family:Bitstream Vera Sans;-inkscape-font-specification:DejaVu Sans Bold"
       d="M 215.37771,92.92764 L 215.37771,101.42764 C 212.98184,100.42767 210.66935,99.67767 208.44021,99.17764 C 206.21102,98.67767 204.10685,98.42767 202.12771,98.42764 C 200.00269,98.42767 198.41936,98.6985 197.37771,99.24014 C 196.35686,99.761 195.84645,100.5735 195.84646,101.67764 C 195.84645,102.5735 196.23186,103.261 197.00271,103.74014 C 197.79436,104.21933 199.20061,104.5735 201.22146,104.80264 L 203.19021,105.08389 C 208.91935,105.81308 212.77351,107.011 214.75271,108.67764 C 216.73184,110.34433 217.72142,112.95891 217.72146,116.52139 C 217.72142,120.25057 216.34642,123.05265 213.59646,124.92764 C 210.84643,126.80264 206.74227,127.74014 201.28396,127.74014 C 198.97144,127.74014 196.57561,127.55264 194.09646,127.17764 C 191.63812,126.82348 189.10687,126.28181 186.50271,125.55264 L 186.50271,117.05264 C 188.73187,118.13598 191.01312,118.94848 193.34646,119.49014 C 195.70061,120.03182 198.08603,120.30265 200.50271,120.30264 C 202.69019,120.30265 204.33602,120.00057 205.44021,119.39639 C 206.54435,118.79223 207.09643,117.8964 207.09646,116.70889 C 207.09643,115.7089 206.71102,114.96932 205.94021,114.49014 C 205.19019,113.99016 203.67977,113.60474 201.40896,113.33389 L 199.44021,113.08389 C 194.46103,112.45891 190.97145,111.30266 188.97146,109.61514 C 186.97145,107.92766 185.97146,105.36516 185.97146,101.92764 C 185.97146,98.21934 187.24229,95.46934 189.78396,93.67764 C 192.32562,91.886011 196.22144,90.990179 201.47146,90.990143 C 203.53394,90.990179 205.7006,91.146429 207.97146,91.458893 C 210.24226,91.771428 212.71101,92.26101 215.37771,92.92764 M 225.78396,113.20889 L 225.78396,91.833893 L 237.03396,91.833893 L 237.03396,95.33389 C 237.03394,97.22976 237.02353,99.61517 237.00271,102.49014 C 236.98186,105.34433 236.97144,107.25058 236.97146,108.20889 C 236.97144,111.02141 237.04436,113.05266 237.19021,114.30264 C 237.33603,115.53182 237.58602,116.42765 237.94021,116.99014 C 238.39852,117.71932 238.99227,118.28182 239.72146,118.67764 C 240.47144,119.07348 241.3256,119.2714 242.28396,119.27139 C 244.61727,119.2714 246.4506,118.37557 247.78396,116.58389 C 249.11726,114.79224 249.78393,112.30266 249.78396,109.11514 L 249.78396,91.833893 L 260.97146,91.833893 L 260.97146,126.83389 L 249.78396,126.83389 L 249.78396,121.77139 C 248.09643,123.81306 246.30477,125.32348 244.40896,126.30264 C 242.53394,127.26098 240.46102,127.74014 238.19021,127.74014 C 234.14853,127.74014 231.0652,126.50056 228.94021,124.02139 C 226.83604,121.54223 225.78395,117.93807 225.78396,113.20889 M 297.78396,101.36514 C 296.80476,100.90684 295.8256,100.5735 294.84646,100.36514 C 293.8881,100.136 292.91935,100.02142 291.94021,100.02139 C 289.06519,100.02142 286.84644,100.9485 285.28396,102.80264 C 283.74227,104.636 282.97144,107.27141 282.97146,110.70889 L 282.97146,126.83389 L 271.78396,126.83389 L 271.78396,91.833893 L 282.97146,91.833893 L 282.97146,97.58389 C 284.40894,95.29226 286.05477,93.62559 287.90896,92.58389 C 289.78394,91.521428 292.02352,90.990179 294.62771,90.990143 C 295.00268,90.990179 295.40893,91.011012 295.84646,91.052643 C 296.28393,91.073512 296.91934,91.136012 297.75271,91.240143 L 297.78396,101.36514 M 338.34646,109.24014 L 338.34646,112.42764 L 312.19021,112.42764 C 312.46103,115.05265 313.40894,117.0214 315.03396,118.33389 C 316.65894,119.6464 318.92977,120.30265 321.84646,120.30264 C 324.2006,120.30265 326.60685,119.9589 329.06521,119.27139 C 331.54434,118.56307 334.08601,117.50057 336.69021,116.08389 L 336.69021,124.70889 C 334.04434,125.70889 331.39851,126.45889 328.75271,126.95889 C 326.10685,127.47973 323.46102,127.74014 320.81521,127.74014 C 314.48186,127.74014 309.55478,126.13598 306.03396,122.92764 C 302.53395,119.69848 300.78396,115.17765 300.78396,109.36514 C 300.78396,103.65683 302.5027,99.16725 305.94021,95.89639 C 309.39853,92.62559 314.14853,90.990179 320.19021,90.990143 C 325.69018,90.990179 330.08601,92.64643 333.37771,95.95889 C 336.69017,99.27142 338.34642,103.6985 338.34646,109.24014 M 326.84646,105.52139 C 326.84643,103.39642 326.22143,101.68808 324.97146,100.39639 C 323.74227,99.08392 322.12768,98.42767 320.12771,98.42764 C 317.96102,98.42767 316.20061,99.04225 314.84646,100.27139 C 313.49228,101.47975 312.64853,103.22975 312.31521,105.52139 L 326.84646,105.52139 M 362.47146,111.08389 C 359.67977,111.08391 357.56519,111.52141 356.12771,112.39639 C 354.71103,113.25057 354.0027,114.52141 354.00271,116.20889 C 354.0027,117.47974 354.41936,118.47973 355.25271,119.20889 C 356.10686,119.93807 357.27353,120.30265 358.75271,120.30264 C 361.04436,120.30265 362.96102,119.61515 364.50271,118.24014 C 366.04435,116.84432 367.0756,114.88599 367.59646,112.36514 L 367.84646,111.08389 L 362.47146,111.08389 M 379.94021,106.86514 L 376.03396,126.83389 L 364.84646,126.83389 L 365.78396,121.64639 C 363.9506,123.72973 362.0131,125.27139 359.97146,126.27139 C 357.92978,127.25056 355.71103,127.74014 353.31521,127.74014 C 350.0027,127.74014 347.36729,126.88598 345.40896,125.17764 C 343.47146,123.44848 342.50271,121.12557 342.50271,118.20889 C 342.50271,113.75057 344.22146,110.34433 347.65896,107.99014 C 351.11728,105.61516 356.09644,104.42767 362.59646,104.42764 L 369.19021,104.42764 L 369.31521,103.55264 C 369.37768,103.261 369.40893,103.05267 369.40896,102.92764 C 369.42976,102.80267 369.44018,102.68808 369.44021,102.58389 C 369.44018,101.20892 368.78393,100.17767 367.47146,99.49014 C 366.17977,98.78184 364.25269,98.42767 361.69021,98.42764 C 359.37769,98.42767 357.13811,98.66725 354.97146,99.14639 C 352.80478,99.62559 350.71103,100.34434 348.69021,101.30264 L 350.37771,92.77139 C 352.71103,92.18809 355.09644,91.750595 357.53396,91.458893 C 359.99227,91.146429 362.53394,90.990179 365.15896,90.990143 C 370.34643,90.990179 374.20059,91.886011 376.72146,93.67764 C 379.24225,95.44851 380.50267,98.15684 380.50271,101.80264 C 380.50267,102.511 380.45059,103.29225 380.34646,104.14639 C 380.26309,104.97975 380.12767,105.886 379.94021,106.86514 M 396.06521,78.208893 L 407.31521,78.208893 L 397.84646,126.83389 L 386.62771,126.83389 L 396.06521,78.208893 M 415.44021,91.833893 L 426.69021,91.833893 L 419.84646,126.83389 L 408.62771,126.83389 L 415.44021,91.833893 M 432.69021,91.833893 L 443.00271,91.833893 L 447.53396,116.27139 L 460.72146,91.833893 L 472.06521,91.833893 L 451.50271,126.83389 L 439.65896,126.83389 L 432.69021,91.833893 M 510.65896,110.64639 L 510.28396,112.42764 L 484.09646,112.42764 C 484.09644,112.55266 484.08603,112.74016 484.06521,112.99014 C 484.04436,113.21932 484.03394,113.39641 484.03396,113.52139 C 484.03394,115.79224 484.71103,117.49015 486.06521,118.61514 C 487.44019,119.74015 489.49227,120.30265 492.22146,120.30264 C 494.5756,120.30265 497.05477,119.94848 499.65896,119.24014 C 502.28393,118.53182 505.03392,117.47974 507.90896,116.08389 L 506.19021,124.77139 C 503.46101,125.77139 500.74226,126.51098 498.03396,126.99014 C 495.34643,127.49014 492.60685,127.74014 489.81521,127.74014 C 484.35686,127.74014 480.13812,126.47973 477.15896,123.95889 C 474.20062,121.43806 472.72146,117.87557 472.72146,113.27139 C 472.72146,110.60474 473.19021,108.02141 474.12771,105.52139 C 475.08604,103.00058 476.47145,100.6985 478.28396,98.61514 C 480.42978,96.11517 482.99228,94.21934 485.97146,92.92764 C 488.97144,91.636011 492.29435,90.990179 495.94021,90.990143 C 500.66934,90.990179 504.41934,92.25059 507.19021,94.77139 C 509.98184,97.29226 511.37767,100.68809 511.37771,104.95889 C 511.37767,105.79225 511.31517,106.67766 511.19021,107.61514 C 511.086,108.53183 510.90892,109.54224 510.65896,110.64639 M 500.09646,105.52139 C 500.15893,105.25058 500.2006,104.97975 500.22146,104.70889 C 500.2631,104.41725 500.28393,104.136 500.28396,103.86514 C 500.28393,102.1985 499.78393,100.87559 498.78396,99.89639 C 497.78393,98.91725 496.42977,98.42767 494.72146,98.42764 C 492.53394,98.42767 490.66935,99.03184 489.12771,100.24014 C 487.60686,101.42767 486.44019,103.18808 485.62771,105.52139 L 500.09646,105.52139 M 533.44021,119.61514 C 536.31519,119.61515 538.64852,118.29223 540.44021,115.64639 C 542.25268,113.00057 543.15893,109.54224 543.15896,105.27139 C 543.15893,103.33392 542.64851,101.8235 541.62771,100.74014 C 540.62768,99.65684 539.22143,99.11517 537.40896,99.11514 C 534.5756,99.11517 532.24227,100.42767 530.40896,103.05264 C 528.57561,105.65683 527.65894,109.00058 527.65896,113.08389 C 527.65894,115.2089 528.14853,116.8339 529.12771,117.95889 C 530.12769,119.06307 531.56519,119.61515 533.44021,119.61514 M 545.22146,96.95889 L 548.84646,78.208893 L 560.12771,78.208893 L 550.65896,126.83389 L 539.37771,126.83389 L 540.40896,121.77139 C 538.7006,123.81306 536.90894,125.32348 535.03396,126.30264 C 533.15894,127.26098 531.10686,127.74014 528.87771,127.74014 C 524.9402,127.74014 521.82562,126.49014 519.53396,123.99014 C 517.24229,121.49015 516.09646,118.0839 516.09646,113.77139 C 516.09646,111.08391 516.49229,108.46933 517.28396,105.92764 C 518.09645,103.386 519.2527,101.0735 520.75271,98.99014 C 522.64853,96.36517 524.78395,94.37559 527.15896,93.02139 C 529.55478,91.667261 532.11727,90.990179 534.84646,90.990143 C 537.24227,90.990179 539.27352,91.479762 540.94021,92.45889 C 542.62768,93.41726 544.05476,94.91726 545.22146,96.95889"
       id="text2383"
       sodipodi:nodetypes="ccsscssccssssccccssscccssssscccccssssssscccccccsccccsscccccccsscccccssccccscscsccccscccccscscccccccccscsccccsscsscccscscccccccccccccccccccccccsscsccccscscccscscccsssssccccscscscccccccccssscccscc" />
    <flowRoot
       xml:space="preserve"
       id="flowRoot2387"
       style="font-size:40px;font-style:normal;font-weight:normal;fill:#000000;fill-opacity:1;stroke:none;stroke-width:1px;stroke-linecap:butt;stroke-linejoin:miter;stroke-opacity:1;font-family:Bitstream Vera Sans"><flowRegion
         id="flowRegion2389"><rect
           id="rect2391"
           width="29.597687"
           height="42.752213"
           x="124.96801"
           y="268.0235" /></flowRegion><flowPara
         id="flowPara2393">al</flowPara></flowRoot>    <text
       xml:space="preserve"
       style="font-size:40px;font-style:normal;font-weight:normal;fill:#000000;fill-opacity:1;stroke:none;stroke-width:1px;stroke-linecap:butt;stroke-linejoin:miter;stroke-opacity:1;font-family:Bitstream Vera Sans"
       x="154.02904"
       y="57.786324"
       id="text2419"><tspan
         sodipodi:role="line"
         id="tspan2421"
         x="154.02904"
         y="57.786324" /></text>
    <path
       sodipodi:type="arc"
       id="path2431"
       sodipodi:cx="338.3457"
       sodipodi:cy="87.592751"
       sodipodi:rx="8.2592812"
       sodipodi:ry="8.9712877"
       d="M 346.60498,87.592751 A 8.2592812,8.9712877 0 1 1 330.08642,87.592751 A 8.2592812,8.9712877 0 1 1 346.60498,87.592751 z"
       transform="matrix(0.6767932,0,0,0.6244512,193.34361,28.756006)"
       style="fill:#ffad0d;fill-opacity:1;stroke:#ffffff;stroke-width:0.63111681;stroke-miterlimit:4;stroke-dasharray:none;stroke-opacity:1" />
  </g>
</svg>
